<?xml version="1.0" encoding="UTF-8"?><svg xmlns="http://www.w3.org/2000/svg" xmlns:xlink="http://www.w3.org/1999/xlink" height="261.0" preserveAspectRatio="xMidYMid meet" version="1.0" viewBox="74.3 85.3 266.6 261.0" width="266.6" zoomAndPan="magnify"><g><g><g><g><g id="change1_1"><path d="M99.972,191.298c3.068,23.263,83.103,141.485,126.85,142.695c43.746,1.208,95.023-59.765,101.679-82.888 c12.407-43.105-15.386-64.856-59.133-66.065C225.622,183.83,93.732,143.982,99.972,191.298z" fill="#D17851"/></g><g id="change2_5"><path d="M228.111,338.51c-0.002,0,0,0-0.003,0c-0.47,0-0.942-0.006-1.41-0.019 c-27.325-0.756-63.156-40.911-82.082-64.78c-25.341-31.96-47.37-68.667-49.105-81.825c-0.914-6.934,0.644-12.755,4.631-17.303 c6.419-7.321,18.935-10.88,38.261-10.88c23.766,0,54.411,5.283,81.449,9.944c19.618,3.382,38.147,6.576,49.64,6.894 c27.153,0.751,47.197,8.93,57.965,23.652c9.156,12.52,10.962,28.722,5.368,48.156 C325.633,277.335,273.437,338.51,228.111,338.51z M138.403,172.703c-16.352,0-26.948,2.629-31.494,7.814 c-2.234,2.548-3.044,5.882-2.476,10.192c1.334,10.121,21.062,44.401,47.235,77.41c30.548,38.526,57.986,60.896,75.278,61.375 c0.386,0.01,0.775,0.016,1.162,0.016c23.982,0.001,48.466-19.817,60.926-31.631c19.045-18.058,32.321-38.219,35.142-48.02 c4.784-16.621,3.443-30.198-3.984-40.354c-8.934-12.216-27.028-19.307-50.949-19.969c-12.138-0.335-30.11-3.434-50.92-7.021 C191.642,177.917,161.399,172.703,138.403,172.703z" fill="#701510"/></g></g><g><g><g><g id="change1_2"><path d="M155.255,306.067c29.081,30.734,68.924,40.251,96.304,14.344 c35.079-33.191,34.043-68.576,17.029-92.119c-21.936-30.35-61.805-26.394-100.672-22.062 c-25.518,2.846-40.958-34.445-54.53-31.847C88.012,179.243,74.332,220.546,155.255,306.067z" fill="#D17851"/></g><g id="change2_7"><path d="M214.479,339.906c-0.001,0,0,0-0.001,0c-21.226,0-44.003-11.207-62.491-30.746 c-64.661-68.335-65.941-104.512-60.949-119.994c3.294-10.217,11.132-17.215,21.502-19.201c0.729-0.139,1.477-0.21,2.226-0.21 c7.314,0,13.668,6.436,21.025,13.887c8.443,8.552,18.013,18.245,29.345,18.245c0.001,0,0.002,0,0.003,0 c0.755,0,1.522-0.043,2.279-0.127c11.927-1.33,26.771-2.984,40.464-2.984c19.285,0,46.938,2.787,64.354,26.882 c16.887,23.367,21.136,61.388-17.583,98.023C243.434,334.295,229.542,339.906,214.479,339.906z M114.766,178.755 c-0.185,0-0.359,0.016-0.533,0.05c-7.146,1.368-12.341,6.029-14.629,13.124c-3.527,10.938-4.847,43.656,58.92,111.046 c16.796,17.75,37.19,27.931,55.954,27.932c12.901,0,24.337-4.63,33.989-13.763c34.497-32.64,31.129-65.937,16.474-86.214 c-11.574-16.013-29.171-23.154-57.059-23.154c-13.193,0-27.761,1.624-39.467,2.929c-1.086,0.121-2.188,0.183-3.274,0.183 c-0.001,0-0.004,0-0.005,0c-15.094,0.001-26.545-11.6-35.749-20.921C123.945,184.454,118.318,178.755,114.766,178.755z" fill="#701510"/></g></g><g><g id="change3_1"><path d="M240.392,308.608c24.615-23.291,30.232-49.756,15.027-70.795 c-15.513-21.463-45.306-19.935-85.702-15.432c-22.37,2.495-38.207-13.546-48.69-24.161c-2.141-2.169-5.098-5.163-7.188-6.922 c-0.379,0.228-0.726,0.488-1.034,0.78c-7.409,7.011-3.896,41.369,54.254,102.822 C187.708,316.722,218.392,329.425,240.392,308.608z" fill="#E5485D"/></g><g id="change2_8"><path d="M214.372,323.697C214.371,323.697,214.372,323.697,214.372,323.697 c-16.688,0-35.125-9.369-50.582-25.705c-58.735-62.071-64.521-99.302-54.079-109.183c0.54-0.511,1.148-0.971,1.809-1.368 c1.648-0.991,3.745-0.824,5.215,0.414c2.257,1.9,5.283,4.965,7.493,7.204c9.623,9.744,22.794,23.082,40.853,23.082 c1.365,0,2.756-0.078,4.136-0.232c15.102-1.684,27.464-2.805,38.708-2.805c17.055,0,38.281,2.281,51.14,20.072 c16.652,23.04,10.827,51.713-15.581,76.7C235.196,319.719,225.4,323.697,214.372,323.697z M114.713,198.261 c-0.684,3.732-0.286,11.033,4.781,23.065c5.802,13.777,19.33,37.188,50.833,70.48c13.563,14.333,30.027,22.89,44.044,22.89 c8.651,0,16.366-3.148,22.928-9.357c22.822-21.594,28.232-45.853,14.473-64.891c-8.281-11.456-21.394-16.344-43.846-16.344 c-10.829,0-22.907,1.099-37.71,2.749c-1.709,0.191-3.437,0.288-5.133,0.288c-21.819,0-37.124-15.498-47.251-25.753 C116.934,200.479,115.831,199.362,114.713,198.261z" fill="#701510"/></g></g></g><g><g id="change2_4"><path d="M252.707,241.293c-0.042,0-0.084,0-0.126-0.002l-23.179-0.64c-2.484-0.068-4.443-2.138-4.374-4.622 c0.068-2.485,2.139-4.469,4.622-4.374l23.179,0.64c2.484,0.068,4.443,2.138,4.374,4.622 C257.135,239.359,255.134,241.293,252.707,241.293z" fill="#701510"/></g><g><g id="change2_2"><path d="M259.07,254.534c-0.042,0-0.084,0-0.127-0.002l-53.081-1.466c-2.484-0.069-4.443-2.138-4.375-4.623 c0.069-2.485,2.14-4.477,4.623-4.374l53.082,1.466c2.484,0.068,4.442,2.138,4.374,4.623 C263.499,252.601,261.498,254.534,259.07,254.534z" fill="#701510"/></g></g></g></g></g><g><g><g id="change2_1"><path d="M240.665,164.398c-2.485,0-4.5-2.015-4.5-4.5c0-5.365,1.344-8.291,2.423-10.641 c0.93-2.025,1.602-3.488,1.602-6.886c0-3.397-0.672-4.86-1.602-6.884c-1.08-2.351-2.423-5.276-2.423-10.641 c0-2.485,2.015-4.5,4.5-4.5s4.5,2.015,4.5,4.5c0,3.397,0.672,4.86,1.602,6.884c1.08,2.351,2.423,5.276,2.423,10.641 c0,5.366-1.344,8.292-2.423,10.642c-0.93,2.024-1.602,3.487-1.602,6.884C245.165,162.384,243.15,164.398,240.665,164.398z" fill="#701510"/></g></g><g><g id="change2_3"><path d="M208.576,164.398c-2.485,0-4.5-2.015-4.5-4.5c0-5.365,1.344-8.291,2.423-10.641 c0.93-2.025,1.602-3.488,1.602-6.886c0-3.397-0.672-4.86-1.602-6.884c-1.08-2.351-2.423-5.276-2.423-10.641 c0-5.366,1.344-8.292,2.423-10.642c0.93-2.024,1.602-3.487,1.602-6.885s-0.672-4.86-1.602-6.884 c-1.08-2.351-2.423-5.276-2.423-10.641c0-2.485,2.015-4.5,4.5-4.5s4.5,2.015,4.5,4.5c0,3.397,0.672,4.86,1.602,6.884 c1.08,2.351,2.423,5.276,2.423,10.641c0,5.366-1.344,8.291-2.423,10.641c-0.93,2.025-1.602,3.488-1.602,6.886 c0,3.397,0.672,4.86,1.602,6.884c1.08,2.351,2.423,5.276,2.423,10.641c0,5.366-1.344,8.292-2.423,10.642 c-0.93,2.024-1.602,3.487-1.602,6.884C213.076,162.384,211.061,164.398,208.576,164.398z" fill="#701510"/></g></g></g></g><g><g id="change4_1"><path d="M201.885,295.241c5.662,5.983,15.244,6.106,21.406,0.275c6.161-5.829,6.567-15.404,0.907-21.386 c-5.661-5.985-15.245-6.107-21.406-0.277C196.631,279.682,196.225,289.258,201.885,295.241z" fill="#FFF"/></g><g id="change2_6"><path d="M212.598,304.31c0,0-0.001,0-0.001,0c-5.369,0-10.333-2.123-13.979-5.976 c-7.357-7.776-6.872-20.224,1.082-27.75c3.765-3.563,8.662-5.524,13.787-5.524c5.37,0,10.335,2.123,13.981,5.978 c3.58,3.784,5.429,8.768,5.206,14.033c-0.221,5.215-2.455,10.085-6.29,13.714C222.619,302.347,217.723,304.31,212.598,304.31z M213.486,274.06c-2.815,0-5.515,1.087-7.602,3.062c-4.349,4.115-4.676,10.855-0.73,15.026c1.929,2.039,4.572,3.162,7.442,3.162 c0,0,0.001,0,0.001,0c2.814,0,5.513-1.087,7.6-3.063c2.125-2.01,3.362-4.694,3.484-7.558c0.119-2.813-0.858-5.465-2.752-7.467 C219,275.183,216.356,274.06,213.486,274.06z" fill="#701510"/></g></g></g></svg>