<?xml version="1.0" encoding="UTF-8"?><svg xmlns="http://www.w3.org/2000/svg" xmlns:xlink="http://www.w3.org/1999/xlink" height="229.6" preserveAspectRatio="xMidYMid meet" version="1.0" viewBox="83.7 100.0 257.1 229.6" width="257.1" zoomAndPan="magnify"><g><g><g><g id="change1_2"><path d="M336.252 170.199L126.374 257.965 124.266 252.92 328.225 151.007z" fill="#FBC55E"/></g><g id="change2_4"><path d="M126.374,262.465c-0.58,0-1.161-0.112-1.708-0.337c-1.104-0.453-1.983-1.327-2.444-2.428l-2.108-5.045 c-0.912-2.185,0.023-4.703,2.141-5.761l203.959-101.913c1.115-0.557,2.411-0.627,3.578-0.193 c1.168,0.434,2.104,1.333,2.585,2.482l8.027,19.192c0.461,1.101,0.465,2.34,0.012,3.444c-0.453,1.104-1.326,1.983-2.427,2.444 L128.11,262.117C127.555,262.349,126.965,262.465,126.374,262.465z M325.931,157.184L173.119,233.54l157.245-65.756 L325.931,157.184z" fill="#701510"/></g></g></g><g><g id="change3_1"><path d="M184.112,201.564c-37.032,0-67.052,8.577-67.052,19.158v82.112c0,12.291,13.144,22.254,29.365,22.254 h75.377c16.216,0,29.367-9.963,29.367-22.254v-82.112C251.17,210.141,221.145,201.564,184.112,201.564z" fill="#FFF"/></g><g id="change2_5"><path d="M221.803,329.588h-75.377c-18.674,0-33.865-12.002-33.865-26.754v-82.112 c0-16.254,37.09-23.658,71.552-23.658c34.464,0,71.558,7.403,71.558,23.658v82.112 C255.67,317.586,240.478,329.588,221.803,329.588z M184.112,206.064c-17.504,0-33.903,1.931-46.177,5.438 c-13.434,3.838-16.375,7.957-16.375,9.22v82.112c0,9.79,11.154,17.754,24.865,17.754h75.377c13.712,0,24.867-7.964,24.867-17.754 v-82.112c0-1.263-2.942-5.382-16.378-9.22C218.018,207.995,201.617,206.064,184.112,206.064z" fill="#701510"/></g></g><g><g id="change4_1"><path d="M221.803,269.766h-75.377c-16.222,0-29.365-9.963-29.365-22.254v55.322 c0,12.291,13.144,22.254,29.365,22.254h75.377c16.216,0,29.367-9.963,29.367-22.254v-55.322 C251.17,259.803,238.019,269.766,221.803,269.766z" fill="#8CC26C"/></g><g id="change2_7"><path d="M221.803,329.588h-75.377c-18.674,0-33.865-12.002-33.865-26.754v-55.322c0-2.485,2.015-4.5,4.5-4.5 s4.5,2.015,4.5,4.5c0,9.79,11.154,17.754,24.865,17.754h75.377c13.712,0,24.867-7.964,24.867-17.754c0-2.485,2.015-4.5,4.5-4.5 s4.5,2.015,4.5,4.5v55.322C255.67,317.586,240.478,329.588,221.803,329.588z M121.561,265.657v37.177 c0,9.79,11.154,17.754,24.865,17.754h75.377c13.712,0,24.867-7.965,24.867-17.754v-37.178c-6.191,5.292-15.048,8.61-24.867,8.61 h-75.377C136.607,274.266,127.752,270.949,121.561,265.657z" fill="#701510"/></g></g><g><g id="change2_6"><path d="M248.867,312.468H222.93c-2.485,0-4.5-2.015-4.5-4.5s2.015-4.5,4.5-4.5h25.938c2.485,0,4.5,2.015,4.5,4.5 S251.353,312.468,248.867,312.468z" fill="#701510"/></g><g><g id="change2_10"><path d="M251.127,293.19H199.25c-2.485,0-4.5-2.015-4.5-4.5s2.015-4.5,4.5-4.5h51.877c2.485,0,4.5,2.015,4.5,4.5 S253.612,293.19,251.127,293.19z" fill="#701510"/></g></g></g><g><g><g id="change5_1"><path d="M267.352,237.811c2.375-10.591,18.573-16.66,8.842-18.376c-5-0.879-15.635,1.655-24.9,4.745 c-5.398-16.268-25.579-27.177-42.506-31.712c-19.252-5.16-40.904-8.066-60.824-4.591c-10.658,1.859-22.904,5.857-31.648,11.743 c-13.451,9.054-24.293,23.205-26.539,38.276l-0.436,2.559c-0.094,0.554-0.656,1.249-0.234,1.662 c8.688,8.51,41.021,6.384,51.779,0c11.389-6.759,19.336-9.574,30.51-9.56c21.9,0.029,58.234-2.98,75.085,12.569 c7.265,5.949,16.094,11.778,21.116,12.663C277.332,259.505,264.978,248.402,267.352,237.811z" fill="#E5485D"/></g><g id="change2_9"><path d="M269.317,262.465C269.316,262.465,269.316,262.465,269.317,262.465c-0.75,0-1.568-0.08-2.503-0.245 c-7.759-1.367-19.708-10.765-23.187-13.613c-0.068-0.056-0.135-0.114-0.2-0.174c-11.135-10.275-33.25-11.593-51.272-11.593 c-3.868,0-7.611,0.059-11.23,0.116c-3.259,0.052-6.338,0.1-9.207,0.1h-0.329c-9.86,0-16.958,2.253-28.207,8.929 c-7.269,4.313-20.895,6.244-31.175,6.244c-8.671,0-20.229-1.197-26.05-6.898c-0.906-0.887-2.233-2.834-1.001-5.938l0.383-2.252 c2.286-15.344,12.932-30.801,28.463-41.255c8.435-5.677,20.604-10.212,33.388-12.442c6.021-1.05,12.469-1.583,19.164-1.583 c13.431,0,28.099,2.106,43.599,6.261c16.69,4.472,36.259,14.722,43.93,30.515c5.61-1.698,13.98-3.878,19.965-3.878 c1.168,0,2.19,0.08,3.126,0.245c1.346,0.237,5.433,0.958,6.56,4.637c1.165,3.803-1.734,6.609-4.804,9.581 c-2.753,2.665-6.181,5.982-6.986,9.575c-0.789,3.522,0.921,7.684,2.294,11.028c1.474,3.586,2.865,6.974,0.853,9.976 C274.074,261.016,272.445,262.465,269.317,262.465z M249.43,241.725c5.879,4.804,11.849,8.744,15.899,10.583 c-1.626-4.007-3.673-9.661-2.368-15.481c1.238-5.522,5.074-9.72,8.315-12.912c-4.596,0.496-11.379,2.14-18.56,4.534 c-1.134,0.377-2.371,0.29-3.438-0.245c-1.068-0.535-1.88-1.473-2.256-2.606c-4.9-14.766-24.287-24.733-39.4-28.783 c-14.74-3.951-28.625-5.954-41.269-5.954c-6.178,0-12.105,0.488-17.617,1.449c-11.414,1.991-22.595,6.119-29.909,11.042 c-13.269,8.931-22.695,22.422-24.601,35.207l-0.264,1.552c3.049,1.662,8.919,3.118,18.044,3.118 c10.536,0,21.716-2.096,26.581-4.983c12.677-7.523,21.239-10.189,32.72-10.189h0.41c2.799,0,5.843-0.048,9.065-0.099 c3.653-0.058,7.433-0.118,11.372-0.118C212.983,227.84,236.065,229.494,249.43,241.725z" fill="#701510"/></g></g><g><g id="change2_8"><path d="M207.338,235.96c-2.485,0-4.5-2.015-4.5-4.5v-13.407c0-2.485,2.015-4.5,4.5-4.5s4.5,2.015,4.5,4.5 v13.407C211.838,233.945,209.823,235.96,207.338,235.96z" fill="#701510"/></g><g><g id="change2_1"><path d="M224.139,236.906c-2.485,0-4.5-2.015-4.5-4.5v-18.56c0-2.485,2.015-4.5,4.5-4.5s4.5,2.015,4.5,4.5 v18.56C228.639,234.892,226.624,236.906,224.139,236.906z" fill="#701510"/></g></g></g><g><g id="change2_11"><path d="M122.318,246.271c-2.485,0-4.5-2.015-4.5-4.5v-17.203c0-2.485,2.015-4.5,4.5-4.5s4.5,2.015,4.5,4.5 v17.203C126.818,244.256,124.804,246.271,122.318,246.271z" fill="#701510"/></g><g><g id="change2_2"><path d="M139.117,247.483c-2.485,0-4.5-2.015-4.5-4.5v-23.811c0-2.485,2.015-4.5,4.5-4.5s4.5,2.015,4.5,4.5 v23.811C143.617,245.469,141.603,247.483,139.117,247.483z" fill="#701510"/></g></g></g></g><g><g><g id="change1_1"><path d="M307.964 121.121L126.823 258.743 123.517 254.388 295.378 104.557z" fill="#FBC55E"/></g><g id="change2_3"><path d="M126.823,263.243c-0.203,0-0.406-0.014-0.609-0.042c-1.183-0.162-2.253-0.787-2.975-1.737l-3.307-4.355 c-1.432-1.885-1.157-4.558,0.627-6.113l171.861-149.832c0.939-0.818,2.176-1.211,3.415-1.084c1.24,0.127,2.371,0.762,3.125,1.754 l12.586,16.564c0.722,0.951,1.037,2.149,0.876,3.331c-0.162,1.183-0.786,2.253-1.736,2.975L129.546,262.326 C128.759,262.924,127.801,263.243,126.823,263.243z M294.707,111.112L165.944,223.369L301.658,120.26L294.707,111.112z" fill="#701510"/></g></g></g></g><g><g id="change6_3"><circle cx="151.288" cy="292.516" fill="#CEE1AC" r="5.831"/></g><g id="change6_2"><circle cx="151.077" cy="307.466" fill="#CEE1AC" r="5.833"/></g><g id="change6_1"><path d="M133.053,301.229c-2.54,1.98-2.995,5.645-1.017,8.187c1.979,2.541,5.644,2.996,8.187,1.017 c2.539-1.979,2.996-5.645,1.016-8.185C139.262,299.707,135.594,299.251,133.053,301.229z" fill="#CEE1AC"/></g></g></svg>