<?xml version="1.0" encoding="UTF-8"?><svg xmlns="http://www.w3.org/2000/svg" xmlns:xlink="http://www.w3.org/1999/xlink" height="184.5" preserveAspectRatio="xMidYMid meet" version="1.0" viewBox="85.0 120.4 255.1 184.5" width="255.1" zoomAndPan="magnify"><g><g id="change1_1"><ellipse cx="212.6" cy="219" fill="#C18D4C" rx="127.559" ry="85.842"/></g><g id="change2_1"><ellipse cx="212.6" cy="203.357" fill="#F9B360" rx="127.559" ry="83.001"/></g><g id="change3_1"><path d="M322.79,202.07c0,39.592-49.333,71.705-110.189,71.705s-110.189-32.113-110.189-71.705 c0-39.591,49.333-71.688,110.189-71.688c34.01,0,64.431,10.024,84.637,25.788C313.191,168.614,322.79,184.599,322.79,202.07z" fill="#D8AC51"/></g><g id="change4_1"><path d="M312.217,204.207c0,35.457-44.598,64.217-99.617,64.217c-55.018,0-99.617-28.761-99.617-64.217 c0-35.459,44.6-64.204,99.617-64.204c30.748,0,58.249,8.977,76.518,23.095C303.541,174.242,312.217,188.558,312.217,204.207z" fill="#FCC55C"/></g><g><g id="change5_1"><ellipse cx="150.076" cy="189.778" fill="#C0374F" rx="18.314" ry="12.301"/></g><g id="change6_2"><ellipse cx="150.076" cy="185.592" fill="#E83F60" rx="18.314" ry="11.917"/></g></g><g><g id="change5_4"><ellipse cx="196.89" cy="165.165" fill="#C0374F" rx="18.314" ry="12.301"/></g><g id="change6_5"><ellipse cx="196.89" cy="160.979" fill="#E83F60" rx="18.314" ry="11.917"/></g></g><g><g id="change5_3"><ellipse cx="172.64" cy="232.818" fill="#C0374F" rx="18.314" ry="12.301"/></g><g id="change6_1"><ellipse cx="172.64" cy="228.632" fill="#E83F60" rx="18.314" ry="11.917"/></g></g><g><g id="change5_6"><ellipse cx="222.326" cy="201.694" fill="#C0374F" rx="18.314" ry="12.301"/></g><g id="change6_4"><ellipse cx="222.326" cy="197.508" fill="#E83F60" rx="18.314" ry="11.917"/></g></g><g><g id="change5_2"><ellipse cx="238.39" cy="240.866" fill="#C0374F" rx="18.314" ry="12.301"/></g><g id="change6_3"><ellipse cx="238.39" cy="236.68" fill="#E83F60" rx="18.314" ry="11.917"/></g></g><g><g id="change5_5"><ellipse cx="280.39" cy="189.778" fill="#C0374F" rx="18.314" ry="12.301"/></g><g id="change6_6"><ellipse cx="280.39" cy="185.592" fill="#E83F60" rx="18.314" ry="11.917"/></g></g></g></svg>