<?xml version="1.0" encoding="UTF-8"?><svg xmlns="http://www.w3.org/2000/svg" xmlns:xlink="http://www.w3.org/1999/xlink" height="197.8" preserveAspectRatio="xMidYMid meet" version="1.0" viewBox="84.1 113.7 256.5 197.8" width="256.5" zoomAndPan="magnify"><g><g id="change1_1"><path d="M340.147,201.617c0-25.931-23.697-46.96-52.908-46.96c-13.812,0-26.384,4.702-35.808,12.396 l-125.981,68.58c-1.015,0.516-2.012,1.055-2.985,1.627l-0.066,0.035h0.001c-14.571,8.574-24.187,23.266-24.187,39.951 c0,8.123,0.514,10.735,5.898,16.627c8.792,9.619,28.314,17.634,47.776,17.634c17.697,0,36.188-5.224,46.2-13.375l125.588-70.665 c2.128-1.022,4.108-2.129,5.894-3.317l0.015-0.009h-0.001c2.347-1.563,4.364-3.258,5.969-5.068 C340.623,213.35,340.147,209.396,340.147,201.617z" fill="#EA9052"/></g><g id="change2_4"><path d="M338.869,194.172c0-25.616-23.446-46.394-52.348-46.394c-13.666,0-26.106,4.647-35.43,12.248 l-124.649,67.752c-1.005,0.51-1.991,1.044-2.955,1.607l-0.065,0.034l0.001,0.002c-14.417,8.471-23.931,22.982-23.931,39.47 c0,8.024,0.509,10.605,5.836,16.425c8.698,9.503,28.015,17.422,47.271,17.422c17.51,0,35.806-5.161,45.712-13.212l124.261-69.815 c2.106-1.011,4.065-2.104,5.832-3.277l0.015-0.007l-0.002-0.002c2.322-1.542,4.318-3.22,5.906-5.007 C339.339,205.764,338.869,201.859,338.869,194.172z" fill="#F9B360"/></g><g id="change3_1"><path d="M337.293,192.521c0-25.616-23.446-46.394-52.348-46.394c-13.667,0-26.106,4.647-35.43,12.248 l-124.65,67.752c-1.005,0.51-1.991,1.044-2.954,1.607l-0.066,0.035l0.001,0.002c-14.417,8.47-23.931,22.982-23.931,39.469 c0,8.025,0.509,10.605,5.835,16.425c8.699,9.503,28.015,17.422,47.272,17.422c17.51,0,35.805-5.161,45.712-13.212l124.261-69.815 c2.106-1.011,4.065-2.104,5.832-3.276l0.015-0.008l-0.002-0.002c2.322-1.542,4.318-3.219,5.906-5.007 C337.763,204.112,337.293,200.208,337.293,192.521z" fill="#E25973"/></g><g id="change4_1"><path d="M246.25,242.754c-5.657-10.201-19.821-15.009-30.663-18.807c-13.971-4.893-28.407-9.163-42.96-12.307 c-12.033-2.601-24.587-4.047-36.667-0.873c-12.239,3.214-22.62,10.463-32.241,17.903c-4.19,3.239-0.926,5.69-5.153,8.884 l-1.593,0.912c-6.764,0.484-10.833,6.432-11.664,11.98c-1.214,8.104,1.68,17.908,8.758,23.207 c3.624,2.716,7.996,4.359,12.475,5.435c2.976,0.713,6.198,0.158,9.057,1.333c2.756,1.133,4.625,3.483,6.271,5.723 c2.386,3.247,5.113,5.809,8.68,7.958c6.821,4.114,15.081,6.168,23.199,5.15c9.367-1.173,17.073-6.461,26.877-5.899 c9.2,0.527,17.795,1.976,26.878-0.458c7.814-2.095,15.181-6.048,21.285-10.992c3.549-2.874,6.876-6.161,9.796-9.594 C245.386,264.314,251.822,252.802,246.25,242.754z" fill="#D4DD6A"/></g><g id="change5_1"><path d="M329.025,186.486c-5.657-10.201-19.821-15.009-30.662-18.807c-13.971-4.893-28.408-9.163-42.96-12.307 c-12.033-2.601-24.587-4.047-36.667-0.873c-12.239,3.214-22.62,10.463-32.241,17.903c-4.19,3.239-0.926,5.69-5.152,8.884 l-1.594,0.912c-6.764,0.484-10.833,6.432-11.664,11.98c-1.214,8.104,1.681,17.908,8.758,23.207 c3.624,2.716,7.996,4.359,12.475,5.435c2.976,0.713,6.198,0.158,9.057,1.333c2.755,1.133,4.625,3.483,6.27,5.723 c2.386,3.247,5.113,5.809,8.681,7.958c6.82,4.114,15.081,6.168,23.199,5.15c9.367-1.173,17.073-6.461,26.877-5.899 c9.2,0.528,17.795,1.976,26.878-0.458c7.813-2.095,15.181-6.048,21.285-10.992c3.549-2.874,6.876-6.161,9.795-9.594 C328.161,208.047,334.598,196.534,329.025,186.486z" fill="#C1C65F"/></g><g><g id="change6_2"><ellipse cx="161.317" cy="257.696" fill="#C0374F" rx="50.131" ry="32.618"/></g><g id="change7_3"><ellipse cx="161.227" cy="250.769" fill="#E83F60" rx="50.13" ry="32.62"/></g></g><g><g id="change6_1"><ellipse cx="226.962" cy="221.615" fill="#C0374F" rx="50.131" ry="32.618"/></g><g id="change7_1"><ellipse cx="226.871" cy="214.687" fill="#E83F60" rx="50.13" ry="32.618"/></g></g><g><g id="change6_3"><ellipse cx="292.485" cy="194.721" fill="#C0374F" rx="41.422" ry="26.951"/></g><g id="change7_2"><ellipse cx="292.41" cy="188.996" fill="#E83F60" rx="41.422" ry="26.952"/></g></g><g id="change8_1"><path d="M331.131,170.1c0-25.618-23.446-46.394-52.349-46.394c-13.666,0-26.105,4.646-35.429,12.246 l-124.65,67.754c-1.005,0.51-1.991,1.042-2.954,1.607l-0.066,0.035h0.001c-14.417,8.47-23.931,22.983-23.931,39.469 c0,8.025,0.509,10.605,5.835,16.427c8.699,9.503,28.015,17.422,47.272,17.422c17.51,0,35.805-5.161,45.712-13.214l124.261-69.813 c2.106-1.011,4.065-2.104,5.832-3.276l0.015-0.01h-0.002c2.322-1.544,4.318-3.22,5.906-5.007 C331.601,181.691,331.131,177.785,331.131,170.1z" fill="#FFD56E"/></g><g id="change2_1"><path d="M331.131,160.085c0-25.616-23.446-46.394-52.349-46.394c-13.666,0-26.105,4.647-35.429,12.248 l-124.65,67.752c-1.005,0.51-1.991,1.044-2.954,1.607l-0.066,0.035l0.001,0.002c-14.417,8.47-23.931,22.982-23.931,39.469 c0,8.025,0.509,10.605,5.835,16.426c8.699,9.502,28.015,17.421,47.272,17.421c17.51,0,35.805-5.161,45.712-13.212l124.261-69.815 c2.106-1.011,4.065-2.104,5.832-3.276l0.015-0.008l-0.002-0.002c2.322-1.542,4.318-3.219,5.906-5.007 C331.601,171.677,331.131,167.772,331.131,160.085z" fill="#F9B360"/></g><g id="change1_3"><path d="M125.008,205.28c0-7.752,7.096-14.04,15.842-14.04c4.135,0,7.9,1.406,10.722,3.705l37.722,20.504 c0.304,0.155,0.603,0.316,0.894,0.486l0.02,0.011l0,0c4.362,2.565,7.242,6.956,7.242,11.944c0,2.43-0.154,3.211-1.766,4.973 c-2.632,2.876-8.478,5.271-14.306,5.271c-5.298,0-10.835-1.561-13.833-3.999l-37.604-21.128c-0.638-0.305-1.23-0.636-1.765-0.992 l-0.004-0.002h0c-0.703-0.467-1.307-0.975-1.787-1.514C124.866,208.787,125.008,207.607,125.008,205.28z" fill="#EA9052"/></g><g id="change2_5"><path d="M133.135,208.629c0-6.033,5.521-10.924,12.327-10.924c3.218,0,6.147,1.094,8.343,2.884l29.351,15.952 c0.237,0.12,0.469,0.246,0.696,0.379l0.015,0.009l0,0c3.395,1.995,5.635,5.412,5.635,9.295c0,1.888-0.12,2.497-1.374,3.867 c-2.048,2.238-6.597,4.103-11.131,4.103c-4.123,0-8.432-1.214-10.764-3.11l-29.26-16.44c-0.496-0.238-0.958-0.495-1.374-0.772 l-0.003-0.002l0,0c-0.547-0.363-1.017-0.759-1.391-1.178C133.024,211.358,133.135,210.438,133.135,208.629z" fill="#F9B360"/></g><g id="change1_2"><path d="M178.622,177.388c0-7.752,7.095-14.039,15.842-14.039c4.135,0,7.9,1.406,10.722,3.707l37.722,20.504 c0.305,0.153,0.603,0.314,0.894,0.485l0.02,0.012l0,0c4.363,2.563,7.242,6.956,7.242,11.944c0,2.427-0.154,3.208-1.766,4.971 c-2.633,2.876-8.478,5.271-14.306,5.271c-5.299,0-10.836-1.562-13.833-3.997l-37.604-21.128c-0.638-0.307-1.23-0.638-1.765-0.992 l-0.004-0.002l0-0.002c-0.703-0.467-1.307-0.974-1.787-1.515C178.479,180.897,178.622,179.715,178.622,177.388z" fill="#EA9052"/></g><g id="change1_4"><path d="M234.068,145.25c0-7.752,7.095-14.039,15.842-14.039c4.136,0,7.9,1.405,10.722,3.705l37.722,20.504 c0.304,0.155,0.603,0.315,0.894,0.485l0.02,0.011l0,0c4.363,2.566,7.242,6.956,7.242,11.945c0,2.429-0.154,3.21-1.766,4.972 c-2.632,2.876-8.478,5.271-14.306,5.271c-5.298,0-10.835-1.561-13.833-3.999L239,152.978c-0.638-0.305-1.23-0.635-1.765-0.991 l-0.004-0.002h0c-0.703-0.468-1.307-0.976-1.787-1.515C233.926,148.758,234.068,147.577,234.068,145.25z" fill="#EA9052"/></g><g id="change2_2"><path d="M184.684,179.476c0-6.031,5.521-10.924,12.327-10.924c3.218,0,6.147,1.094,8.344,2.884l29.351,15.954 c0.237,0.12,0.469,0.244,0.696,0.377l0.016,0.009l0,0c3.395,1.997,5.635,5.412,5.635,9.295c0,1.889-0.12,2.497-1.374,3.867 c-2.048,2.238-6.597,4.103-11.131,4.103c-4.123,0-8.432-1.214-10.764-3.11l-29.26-16.44c-0.496-0.236-0.958-0.495-1.374-0.772 h-0.003v-0.002c-0.547-0.361-1.017-0.757-1.391-1.178C184.573,182.205,184.684,181.287,184.684,179.476z" fill="#F9B360"/></g><g id="change2_3"><path d="M242.105,147.337c0-6.032,5.521-10.923,12.326-10.923c3.218,0,6.147,1.093,8.344,2.883l29.351,15.953 c0.237,0.12,0.469,0.245,0.696,0.378l0.015,0.01l0,0c3.395,1.995,5.635,5.411,5.635,9.294c0,1.888-0.12,2.497-1.374,3.868 c-2.048,2.238-6.597,4.102-11.131,4.102c-4.123,0-8.432-1.213-10.764-3.11l-29.261-16.44c-0.496-0.238-0.958-0.495-1.373-0.771 l-0.003-0.002l0,0c-0.547-0.364-1.017-0.759-1.39-1.179C241.995,150.067,242.105,149.147,242.105,147.337z" fill="#F9B360"/></g></g></svg>